<svg width="16" height="17" viewBox="0 0 16 17" fill="none" xmlns="http://www.w3.org/2000/svg">
<g clip-path="url(#clip0_206_15679)">
<path d="M5.82342 8.55332C2.92972 8.55332 0 7.62687 0 5.85589C0 4.08492 2.92972 3.15936 5.82342 3.15936C8.71712 3.15936 11.6468 4.08582 11.6468 5.85589C11.6468 7.62597 8.71712 8.55242 5.82342 8.55242V8.55332ZM5.82342 4.41984C2.99274 4.41984 1.26048 5.3499 1.26048 5.85589C1.26048 6.36188 2.99274 7.29194 5.82342 7.29194C8.6541 7.29194 10.3864 6.36188 10.3864 5.85589C10.3864 5.3499 8.6541 4.41984 5.82342 4.41984Z" fill="white"/>
<path d="M5.82342 11.1643C2.92972 11.1643 0 10.2379 0 8.46688V5.85589C0 5.50745 0.281807 5.22565 0.63024 5.22565C0.978673 5.22565 1.26048 5.50745 1.26048 5.85589C1.26048 6.36188 2.99274 7.29193 5.82342 7.29193C8.6541 7.29193 10.3864 6.36188 10.3864 5.85589C10.3864 5.50745 10.6682 5.22565 11.0166 5.22565C11.365 5.22565 11.6468 5.50745 11.6468 5.85589V8.46688C11.6468 10.2379 8.71712 11.1634 5.82342 11.1634V11.1643ZM1.26048 7.59535V8.46688C1.26048 8.97288 2.99274 9.90293 5.82342 9.90293C8.6541 9.90293 10.3864 8.97288 10.3864 8.46688V7.59535C9.26363 8.22829 7.53767 8.55332 5.82342 8.55332C4.10917 8.55332 2.38411 8.22829 1.26048 7.59535Z" fill="white"/>
<path d="M5.82342 13.7744C2.92972 13.7744 0 12.8479 0 11.0778V8.46685C0 8.11842 0.281807 7.83661 0.63024 7.83661C0.978673 7.83661 1.26048 8.11842 1.26048 8.46685C1.26048 8.97284 2.99274 9.9029 5.82342 9.9029C8.6541 9.9029 10.3864 8.97284 10.3864 8.46685C10.3864 8.11842 10.6682 7.83661 11.0166 7.83661C11.365 7.83661 11.6468 8.11842 11.6468 8.46685V11.0778C11.6468 12.8488 8.71712 13.7744 5.82342 13.7744ZM1.26048 10.2063V11.0778C1.26048 11.5838 2.99274 12.5139 5.82342 12.5139C8.6541 12.5139 10.3864 11.5838 10.3864 11.0778V10.2063C9.26363 10.8393 7.53767 11.1643 5.82342 11.1643C4.10917 11.1643 2.38411 10.8393 1.26048 10.2063Z" fill="white"/>
<path d="M5.82342 16.3853C2.92972 16.3853 0 15.4589 0 13.6888V11.0778C0 10.7294 0.281807 10.4476 0.63024 10.4476C0.978673 10.4476 1.26048 10.7294 1.26048 11.0778C1.26048 11.5838 2.99274 12.5139 5.82342 12.5139C8.6541 12.5139 10.3864 11.5838 10.3864 11.0778C10.3864 10.7294 10.6682 10.4476 11.0166 10.4476C11.365 10.4476 11.6468 10.7294 11.6468 11.0778V13.6888C11.6468 15.4598 8.71712 16.3853 5.82342 16.3853ZM1.26048 12.8173V13.6888C1.26048 14.1948 2.99274 15.1249 5.82342 15.1249C8.6541 15.1249 10.3864 14.1948 10.3864 13.6888V12.8173C9.26363 13.4502 7.53767 13.7752 5.82342 13.7752C4.10917 13.7752 2.38411 13.4502 1.26048 12.8173Z" fill="white"/>
<path d="M14.3176 1.68094L13.6225 0.199876C13.4974 -0.0666254 13.1183 -0.0666254 12.9932 0.199876L12.2981 1.68094L10.8171 2.37601C10.5506 2.50115 10.5506 2.8802 10.8171 3.00535L12.2981 3.70041L12.9932 5.18148C13.1183 5.44798 13.4974 5.44798 13.6225 5.18148L14.3176 3.70041L15.7987 3.00535C16.0652 2.8802 16.0652 2.50115 15.7987 2.37601L14.3176 1.68094Z" fill="white"/>
</g>
<defs>
<clipPath id="clip0_206_15679">
<rect width="16" height="16.3853" fill="white"/>
</clipPath>
</defs>
</svg>
