<svg width="16" height="16" viewBox="0 0 16 16" fill="none" xmlns="http://www.w3.org/2000/svg">
<g clip-path="url(#clip0_206_15674)">
<path d="M12.015 15.3639C11.7788 15.3639 11.5426 15.3084 11.3234 15.1945L8.08741 13.5234C8.03377 13.4952 7.96885 13.4952 7.91427 13.5234L4.67833 15.1945C4.16927 15.4571 3.56612 15.411 3.10223 15.075C2.63928 14.7382 2.40874 14.1783 2.50096 13.6137L3.08999 10.0193C3.0994 9.95907 3.07964 9.89791 3.03636 9.85462L0.447792 7.29334C0.0403588 6.89061 -0.102666 6.30252 0.0751742 5.7577C0.252074 5.21289 0.714083 4.82145 1.2796 4.73489L4.87969 4.18443C4.93991 4.17502 4.99261 4.13738 5.01989 4.0828L6.65621 0.828981C6.91309 0.317102 7.42874 0 8.00178 0C8.57482 0 9.08952 0.318043 9.34735 0.828981L10.9837 4.0828C11.011 4.13738 11.0636 4.17502 11.1239 4.18443L14.724 4.73489C15.2895 4.82145 15.7515 5.21383 15.9284 5.7577C16.1053 6.30252 15.9623 6.89061 15.5558 7.29334L12.9663 9.85462C12.923 9.89697 12.9032 9.95907 12.9126 10.0193L13.5017 13.6137C13.5939 14.1783 13.3643 14.7391 12.9004 15.075C12.6369 15.267 12.3274 15.3639 12.0168 15.3639H12.015ZM7.9999 12.1863C8.23702 12.1863 8.47414 12.2418 8.69056 12.3538L11.9265 14.0249C12.0121 14.0692 12.0808 14.0409 12.1232 14.0099C12.1664 13.9788 12.2135 13.9214 12.1984 13.8273L11.6094 10.2329C11.5304 9.753 11.6903 9.26182 12.0366 8.91931L14.6261 6.35803C14.6939 6.29028 14.6891 6.21595 14.6732 6.16608C14.6572 6.11527 14.6176 6.05222 14.5226 6.03811L10.9225 5.48765C10.4417 5.41426 10.0239 5.11033 9.80465 4.67561L8.16833 1.42178C8.12504 1.33616 8.05259 1.31828 7.9999 1.31828C7.9472 1.31828 7.87475 1.33616 7.83147 1.42178L6.19515 4.67561C5.9759 5.11033 5.55812 5.41426 5.07729 5.48765L1.4772 6.03811C1.38216 6.05222 1.34264 6.11527 1.32664 6.16608C1.31065 6.21689 1.305 6.29028 1.37369 6.35803L3.9632 8.91931C4.30947 9.26182 4.46849 9.753 4.39039 10.2329L3.80136 13.8273C3.78536 13.9224 3.83335 13.9788 3.87663 14.0099C3.91898 14.0409 3.98861 14.0692 4.07329 14.0249L7.30924 12.3538C7.52566 12.2418 7.76278 12.1863 7.9999 12.1863Z" fill="white"/>
</g>
<defs>
<clipPath id="clip0_206_15674">
<rect width="16" height="15.3639" fill="white"/>
</clipPath>
</defs>
</svg>
