<svg width="15" height="17" viewBox="0 0 15 17" fill="none" xmlns="http://www.w3.org/2000/svg">
<g clip-path="url(#clip0_206_15666)">
<path d="M11.1289 16.909H0.6619C0.469992 16.909 0.287538 16.8257 0.161805 16.6809C0.0360728 16.536 -0.0206487 16.3429 0.00676672 16.1536L1.61104 4.8414C1.65736 4.51479 1.93624 4.27148 2.26617 4.27148H12.7332C12.9251 4.27148 13.1075 4.35479 13.2333 4.49964C13.359 4.64449 13.4157 4.83761 13.3883 5.02695L11.784 16.3382C11.7377 16.6648 11.4588 16.9081 11.1289 16.9081V16.909ZM1.42386 15.5837H10.5541L11.9703 5.59782H2.84095L1.4248 15.5837H1.42386Z" fill="white"/>
<path d="M11.1267 16.9091C10.9707 16.9091 10.8175 16.8542 10.6965 16.75C10.5245 16.6023 10.4394 16.378 10.4715 16.1536L12.0758 4.84238C12.1221 4.51766 12.3991 4.2753 12.7262 4.27246H12.7309C13.0571 4.27246 13.335 4.51008 13.3851 4.83291L14.9894 15.1643C15.0405 15.49 14.8438 15.8033 14.529 15.8999L11.3205 16.8807C11.2571 16.9006 11.1919 16.9091 11.1276 16.9091H11.1267ZM12.7612 9.43863L11.9283 15.3091L13.5941 14.7998L12.7612 9.43768V9.43863Z" fill="white"/>
<path d="M9.98349 7.11259C9.61764 7.11259 9.32174 6.81627 9.32174 6.4499V3.33713C9.32174 2.2276 8.42082 1.32539 7.31286 1.32539C6.2049 1.32539 5.30397 2.2276 5.30397 3.33713V6.4499C5.30397 6.81627 5.00807 7.11259 4.64222 7.11259C4.27637 7.11259 3.98047 6.81627 3.98047 6.4499V3.33713C3.98141 1.49674 5.47603 0 7.31286 0C9.14969 0 10.6452 1.49674 10.6452 3.33713V6.4499C10.6452 6.81627 10.3493 7.11259 9.98349 7.11259Z" fill="white"/>
</g>
<defs>
<clipPath id="clip0_206_15666">
<rect width="15" height="16.9091" fill="white"/>
</clipPath>
</defs>
</svg>
